# xmcd
#
# Track frame offsets: 
#        150
#        16725
#        40350
#        60526
#        81151
#        97202
#        118877
#        138302
#        153678
#        174903
#        203104
#        219754
#
# Disc length: 3158 seconds
#
# Revision: 1
# Processed by: cddbd v1.5.2PL0 Copyright (c) Steve Scherf et al.
# Submitted via: ExactAudioCopy v0.95b4
#
DISCID=a10c540c
DTITLE=Eddie Higgins Trio - Christmas Songs
DYEAR=2004
DGENRE=Christmas Jazz
TTITLE0=Let It Snow
TTITLE1=The Christmas Song
TTITLE2=I'll Be Home For Christmas
TTITLE3=God Rest Ye Merry Gentlemen
TTITLE4=Sant Claus Is Coming To Town
TTITLE5=O Little Town Of Bethlehem
TTITLE6=Have Yourself A Merry Little Christmas
TTITLE7=The Christmas Waltz
TTITLE8=White Christmas
TTITLE9=Winter Wonderland
TTITLE10=Deck The Hall Boughs Of Holly
TTITLE11=Sleight Ride
EXTD=YEAR: 2004
EXTT0=
EXTT1=
EXTT2=
EXTT3=
EXTT4=
EXTT5=
EXTT6=
EXTT7=
EXTT8=
EXTT9=
EXTT10=
EXTT11=
PLAYORDER=
